<svg xmlns="http://www.w3.org/2000/svg" version="1.1" xmlns:xlink="http://www.w3.org/1999/xlink" xmlns:svgjs="http://svgjs.dev/svgjs" width="64" height="64"><svg width="64" height="64" viewBox="0 0 64 64" fill="none" xmlns="http://www.w3.org/2000/svg">
<g clip-path="url(#clip0_215_5)">
<rect width="64" height="64" rx="12" fill="#0C0C0C"></rect>
<path d="M9.104 28.976H30.968V31.712H9.104V28.976ZM10.544 22.112H29.648V24.824H10.544V22.112ZM20.12 32.672H23.144V39.128C23.144 39.56 23.216 39.832 23.36 39.944C23.504 40.056 23.84 40.112 24.368 40.112C24.48 40.112 24.664 40.112 24.92 40.112C25.192 40.112 25.48 40.112 25.784 40.112C26.104 40.112 26.4 40.112 26.672 40.112C26.96 40.112 27.176 40.112 27.32 40.112C27.64 40.112 27.888 40.032 28.064 39.872C28.24 39.712 28.36 39.376 28.424 38.864C28.488 38.352 28.544 37.576 28.592 36.536C28.816 36.696 29.088 36.856 29.408 37.016C29.744 37.176 30.088 37.32 30.44 37.448C30.792 37.576 31.096 37.672 31.352 37.736C31.24 39.112 31.056 40.176 30.8 40.928C30.56 41.68 30.176 42.2 29.648 42.488C29.136 42.792 28.44 42.944 27.56 42.944C27.432 42.944 27.248 42.944 27.008 42.944C26.768 42.944 26.496 42.944 26.192 42.944C25.904 42.944 25.608 42.944 25.304 42.944C25.016 42.944 24.752 42.944 24.512 42.944C24.272 42.944 24.088 42.944 23.96 42.944C22.952 42.944 22.168 42.824 21.608 42.584C21.048 42.36 20.656 41.968 20.432 41.408C20.224 40.848 20.12 40.096 20.12 39.152V32.672ZM18.128 23.264H21.08C21.048 25.088 20.976 26.84 20.864 28.52C20.768 30.184 20.552 31.752 20.216 33.224C19.88 34.696 19.336 36.056 18.584 37.304C17.848 38.536 16.832 39.648 15.536 40.64C14.24 41.632 12.568 42.488 10.52 43.208C10.36 42.808 10.104 42.36 9.752 41.864C9.4 41.384 9.048 41 8.696 40.712C10.6 40.104 12.144 39.384 13.328 38.552C14.512 37.704 15.424 36.744 16.064 35.672C16.72 34.584 17.184 33.4 17.456 32.12C17.744 30.824 17.92 29.44 17.984 27.968C18.048 26.48 18.096 24.912 18.128 23.264ZM44.144 26.072H52.4V28.424H44.144V26.072ZM40.016 39.992C40.736 39.88 41.568 39.744 42.512 39.584C43.472 39.424 44.488 39.256 45.56 39.08C46.632 38.888 47.696 38.696 48.752 38.504L48.992 41C47.6 41.32 46.2 41.632 44.792 41.936C43.384 42.256 42.104 42.536 40.952 42.776L40.016 39.992ZM42.512 21.68H45.296V40.64H42.512V21.68ZM44.144 21.68H53.72V32.912H44.144V30.44H50.864V24.152H44.144V21.68ZM49.136 31.256C49.44 32.696 49.856 34.032 50.384 35.264C50.912 36.48 51.584 37.552 52.4 38.48C53.216 39.408 54.216 40.128 55.4 40.64C55.192 40.832 54.968 41.064 54.728 41.336C54.488 41.624 54.256 41.92 54.032 42.224C53.824 42.544 53.656 42.832 53.528 43.088C52.232 42.4 51.144 41.504 50.264 40.4C49.4 39.28 48.688 37.984 48.128 36.512C47.568 35.04 47.112 33.424 46.76 31.664L49.136 31.256ZM52.616 33.08L54.872 34.64C54.216 35.28 53.52 35.912 52.784 36.536C52.064 37.144 51.4 37.664 50.792 38.096L49.016 36.728C49.4 36.408 49.808 36.04 50.24 35.624C50.688 35.208 51.12 34.776 51.536 34.328C51.952 33.88 52.312 33.464 52.616 33.08ZM33.776 21.632H39.752V24.224H36.464V43.16H33.776V21.632ZM38.96 21.632H39.464L39.872 21.536L41.84 22.664C41.616 23.368 41.376 24.112 41.12 24.896C40.864 25.68 40.608 26.456 40.352 27.224C40.096 27.992 39.84 28.688 39.584 29.312C40.368 30.24 40.872 31.12 41.096 31.952C41.336 32.768 41.456 33.528 41.456 34.232C41.456 35.032 41.368 35.688 41.192 36.2C41.016 36.712 40.728 37.112 40.328 37.4C40.136 37.544 39.912 37.656 39.656 37.736C39.416 37.816 39.168 37.88 38.912 37.928C38.688 37.96 38.424 37.976 38.12 37.976C37.832 37.976 37.536 37.976 37.232 37.976C37.216 37.608 37.152 37.176 37.04 36.68C36.944 36.184 36.8 35.76 36.608 35.408C36.832 35.424 37.032 35.432 37.208 35.432C37.4 35.432 37.568 35.432 37.712 35.432C37.84 35.432 37.96 35.416 38.072 35.384C38.2 35.336 38.32 35.28 38.432 35.216C38.576 35.104 38.68 34.936 38.744 34.712C38.824 34.472 38.856 34.184 38.84 33.848C38.84 33.288 38.72 32.648 38.48 31.928C38.256 31.192 37.784 30.424 37.064 29.624C37.24 29.08 37.416 28.48 37.592 27.824C37.784 27.168 37.96 26.512 38.12 25.856C38.296 25.184 38.456 24.56 38.6 23.984C38.76 23.392 38.88 22.904 38.96 22.52V21.632Z" fill="white"></path>
</g>
<defs>
<clipPath id="SvgjsClipPath1001">
<rect width="64" height="64" rx="12" fill="white"></rect>
</clipPath>
</defs>
</svg><style>@media (prefers-color-scheme: light) { :root { filter: none; } }
@media (prefers-color-scheme: dark) { :root { filter: none; } }
</style></svg>